#!OML:ASF F:\VICON\USERDATA\INSTALL\rory3\rory3.ASF
:FULLY-SPECIFIED
:DEGREES
88
root 13.8549 17.9843 -11.7766 -0.465158 4.64551 2.42147
lowerback 9.66259 -0.628645 -3.35753
upperback 0.900702 -1.16247 0.656295
thorax -4.40093 -0.507389 2.72878
lowerneck -23.3742 -6.56306 -12.3148
upperneck 25.4635 -7.87258 10.2012
head 13.4238 -3.31026 4.62296
rclavicle -5.8393e-015 1.63003e-014
rhumerus -35.6382 -16.8669 -79.6193
rradius 24.4957
rwrist 11.0476
rhand -13.9975 8.66156
rfingers 7.12502
rthumb 12.1315 -20.9667
lclavicle -5.8393e-015 1.63003e-014
lhumerus -29.5611 0.685242 86.2662
lradius 36.7272
lwrist -5.25504
lhand -17.8681 24.5845
lfingers 7.12502
lthumb 8.39758 54.3975
rfemur -20.4489 -1.51585 22.1322
rtibia 24.2467
rfoot -1.98188 2.62063
rtoes 9.61804
lfemur 14.6472 -5.75079 -26.2247
ltibia 22.0566
lfoot 8.0789 -10.8451
ltoes -13.3505
89
root 13.8464 18.0068 -11.624 -0.467067 4.66598 2.25483
lowerback 9.61048 -0.624831 -3.30139
upperback 0.834425 -1.14695 0.734872
thorax -4.44167 -0.498398 2.77697
lowerneck -23.0134 -6.58986 -12.1382
upperneck 25.2985 -7.88417 9.80259
head 13.2538 -3.35958 4.425
rclavicle -4.72114e-016 -1.94809e-014
rhumerus -35.6866 -17.0247 -79.4635
rradius 24.2799
rwrist 11.1016
rhand -13.9942 8.85725
rfingers 7.12502
rthumb 12.1347 -20.7708
lclavicle -4.72114e-016 -1.94809e-014
lhumerus -29.8705 0.721731 86.2697
lradius 36.0577
lwrist -5.54125
lhand -17.9126 22.8979
lfingers 7.12502
lthumb 8.35468 52.7126
rfemur -19.8237 -1.68404 22.4173
rtibia 24.0922
rfoot -2.20141 2.95346
rtoes 10.9875
lfemur 13.4404 -5.76026 -25.8192
ltibia 24.4547
lfoot 10.4798 -11.1762
ltoes -9.97614
90
root 13.8398 18.0275 -11.4721 -0.485406 4.75273 1.79531
lowerback 9.52925 -0.657149 -2.88068
upperback 0.826055 -1.13683 0.859438
thorax -4.41121 -0.500721 2.66667
lowerneck -22.9203 -6.69019 -11.877
upperneck 25.1508 -7.98588 9.35132
head 13.1511 -3.43934 4.17425
rclavicle -1.63003e-014 1.55052e-014
rhumerus -35.6191 -17.2574 -79.368
rradius 24.0916
rwrist 11.2774
rhand -14.0432 9.04762
rfingers 7.12502
rthumb 12.0875 -20.5833
lclavicle -1.63003e-014 1.55052e-014
lhumerus -30.0665 0.678186 86.2731
lradius 35.4351
lwrist -5.68872
lhand -18.3668 22.0372
lfingers 7.12502
lthumb 7.9163 51.869
rfemur -19.1267 -1.76825 22.9946
rtibia 23.8321
rfoot -2.52487 3.01969
rtoes 11.7674
lfemur 12.1372 -5.79605 -25.0613
ltibia 26.9294
lfoot 12.7988 -11.5802
ltoes -7.55774
91
root 13.8376 18.0488 -11.3195 -0.498748 4.87193 1.34533
lowerback 9.34495 -0.718771 -2.40815
upperback 0.870592 -1.15945 0.960869
thorax -4.26736 -0.522787 2.50411
lowerneck -23.0537 -6.71886 -11.8727
upperneck 25.1795 -8.04244 9.43794
head 13.2017 -3.44865 4.19681
rclavicle -1.14053e-014 -4.77083e-015
rhumerus -35.5296 -17.1773 -79.4593
rradius 24.053
rwrist 11.4798
rhand -14.3592 9.10773
rfingers 7.12502
rthumb 11.7828 -20.5408
lclavicle -1.14053e-014 -4.77083e-015
lhumerus -30.1411 0.512982 86.2653
lradius 34.8405
lwrist -6.04642
lhand -18.0765 23.7685
lfingers 7.12502
lthumb 8.19648 53.5895
rfemur -18.3774 -2.04849 23.5448
rtibia 23.4649
rfoot -2.8996 3.20367
rtoes 11.9548
lfemur 10.7771 -5.81481 -24.3136
ltibia 29.4494
lfoot 14.9044 -12.1872
ltoes -5.35749
92
root 13.8371 18.0694 -11.1704 -0.496458 4.97284 1.02013
lowerback 9.20855 -0.755959 -2.07088
upperback 0.879681 -1.16732 1.05192
thorax -4.18598 -0.533298 2.40661
lowerneck -23.0667 -6.68689 -11.8752
upperneck 25.1762 -8.0148 9.50627
head 13.2031 -3.42743 4.23013
rclavicle 1.36664e-015 -9.14409e-015
rhumerus -35.5087 -16.9103 -79.538
rradius 23.9714
rwrist 11.7374
rhand -14.7856 9.51175
rfingers 7.12502
rthumb 11.3716 -20.1599
lclavicle 1.36664e-015 -9.14409e-015
lhumerus -30.1985 0.177716 86.3445
lradius 34.2768
lwrist -6.52477
lhand -17.3238 25.8717
lfingers 7.12502
lthumb 8.9229 55.663
rfemur -17.6056 -2.40419 23.9463
rtibia 22.9975
rfoot -3.15029 3.53635
rtoes 12.175
lfemur 9.3274 -5.80048 -23.7506
ltibia 31.994
lfoot 16.7029 -13.2846
ltoes -4.10721
